<svg version="1.1" xmlns="http://www.w3.org/2000/svg" viewBox="0 0 765.8606109619141 310.3606719970703" width="765.8606109619141" height="310.3606719970703">
  <!-- svg-source:excalidraw -->
  
  <defs>
    <style class="style-fonts">
      @font-face {
        font-family: "Virgil";
        src: url("https://file%2B.vscode-resource.vscode-cdn.net/Users/user/.vscode/extensions/pomdtr.excalidraw-editor-3.7.4/public//dist/excalidraw-assets/Virgil.woff2");
      }
      @font-face {
        font-family: "Cascadia";
        src: url("https://file%2B.vscode-resource.vscode-cdn.net/Users/user/.vscode/extensions/pomdtr.excalidraw-editor-3.7.4/public//dist/excalidraw-assets/Cascadia.woff2");
      }
      @font-face {
        font-family: "Assistant";
        src: url("https://file%2B.vscode-resource.vscode-cdn.net/Users/user/.vscode/extensions/pomdtr.excalidraw-editor-3.7.4/public//dist/excalidraw-assets/Assistant-Regular.woff2");
      }
    </style>
    
  </defs>
  <rect x="0" y="0" width="765.8606109619141" height="310.3606719970703" fill="#000"></rect><g stroke-linecap="round" transform="translate(10 21.12500762939453) rotate(0 60.15623474121094 39.55077362060547)"><path d="M19.78 0 C51.79 0.68, 79.76 0.27, 100.54 0 M19.78 0 C42.23 -0.6, 63.52 -0.06, 100.54 0 M100.54 0 C113.71 0.07, 118.73 7.14, 120.31 19.78 M100.54 0 C114.45 -1.81, 120.93 7.94, 120.31 19.78 M120.31 19.78 C118.76 31.08, 118.78 45.36, 120.31 59.33 M120.31 19.78 C119.39 34.77, 120.58 51.02, 120.31 59.33 M120.31 59.33 C121.06 74.18, 114.37 78.05, 100.54 79.1 M120.31 59.33 C122.27 71.84, 113.61 80.05, 100.54 79.1 M100.54 79.1 C73.06 77.3, 46.44 78, 19.78 79.1 M100.54 79.1 C68.95 80.44, 37.11 80.36, 19.78 79.1 M19.78 79.1 C6.07 78.72, 1.44 72.45, 0 59.33 M19.78 79.1 C6.25 77.12, -0.79 70.96, 0 59.33 M0 59.33 C0.6 44.41, 0.8 29.09, 0 19.78 M0 59.33 C0.61 49.34, 0.61 38.06, 0 19.78 M0 19.78 C1.44 6.58, 7.82 -1.95, 19.78 0 M0 19.78 C0.65 7.28, 4.83 0.07, 19.78 0" stroke="#ffffff" stroke-width="2" fill="none"></path></g><g transform="translate(45.136260986328125 48.17578125) rotate(0 25.019973754882812 12.5)"><text x="25.019973754882812" y="0" font-family="Virgil, Segoe UI Emoji" font-size="20px" fill="#ffffff" text-anchor="middle" style="white-space: pre;" direction="ltr" dominant-baseline="text-before-edge">front</text></g><g stroke-linecap="round" transform="translate(171.3185577392578 24.518234252929688) rotate(0 60.15623474121094 39.55077362060547)"><path d="M19.78 0 C44.62 -0.71, 68.25 -1.28, 100.54 0 M19.78 0 C43.63 -0.23, 66.04 -0.65, 100.54 0 M100.54 0 C115.7 1.77, 121.49 5.01, 120.31 19.78 M100.54 0 C113.65 1.68, 118.94 7.27, 120.31 19.78 M120.31 19.78 C121.04 28.53, 118.22 40.26, 120.31 59.33 M120.31 19.78 C120.76 27.85, 120.86 38.15, 120.31 59.33 M120.31 59.33 C120.02 73.6, 113.53 78.26, 100.54 79.1 M120.31 59.33 C122.01 73.73, 112.89 81.21, 100.54 79.1 M100.54 79.1 C80.33 78.59, 59.09 78.76, 19.78 79.1 M100.54 79.1 C81.75 79.19, 63.12 79.27, 19.78 79.1 M19.78 79.1 C7.99 80.94, 0.46 70.71, 0 59.33 M19.78 79.1 C4.49 79.75, 0.1 71.71, 0 59.33 M0 59.33 C-1.91 46.96, -0.46 36.14, 0 19.78 M0 59.33 C0.36 50.04, 0.73 39.24, 0 19.78 M0 19.78 C-1.47 6.47, 4.8 -1.58, 19.78 0 M0 19.78 C1.19 4.85, 4.85 2.16, 19.78 0" stroke="#ffffff" stroke-width="2" fill="none"></path></g><g transform="translate(209.83480834960938 51.569007873535156) rotate(0 21.639984130859375 12.5)"><text x="21.639984130859375" y="0" font-family="Virgil, Segoe UI Emoji" font-size="20px" fill="#ffffff" text-anchor="middle" style="white-space: pre;" direction="ltr" dominant-baseline="text-before-edge">back</text></g><g stroke-linecap="round" transform="translate(317.3815460205078 23.342453002929688) rotate(0 60.15623474121094 39.55077362060547)"><path d="M19.78 0 C46.92 -0.85, 74.84 0.44, 100.54 0 M19.78 0 C45.15 0.25, 69.35 0.19, 100.54 0 M100.54 0 C114.95 1.47, 121.56 6.46, 120.31 19.78 M100.54 0 C115.56 1.9, 120.52 4.85, 120.31 19.78 M120.31 19.78 C121.57 26.31, 120.12 34.23, 120.31 59.33 M120.31 19.78 C120.09 34.91, 121.17 49.03, 120.31 59.33 M120.31 59.33 C121.58 71.86, 114.66 79.21, 100.54 79.1 M120.31 59.33 C120.96 74.55, 112.02 79.91, 100.54 79.1 M100.54 79.1 C74.98 77.8, 45.45 80.03, 19.78 79.1 M100.54 79.1 C78.62 78.1, 56.63 78.19, 19.78 79.1 M19.78 79.1 C6.26 80.18, 0.87 74.08, 0 59.33 M19.78 79.1 C5.86 79.68, -2.15 72.27, 0 59.33 M0 59.33 C-1.33 43.15, 1.42 29.89, 0 19.78 M0 59.33 C-0.17 44.94, 0.54 29.8, 0 19.78 M0 19.78 C-0.6 5.64, 7.24 1.94, 19.78 0 M0 19.78 C1.14 7.79, 4.31 -1.34, 19.78 0" stroke="#ffffff" stroke-width="2" fill="none"></path></g><g transform="translate(350.29781341552734 50.393226623535156) rotate(0 27.239967346191406 12.5)"><text x="27.239967346191406" y="0" font-family="Virgil, Segoe UI Emoji" font-size="20px" fill="#ffffff" text-anchor="middle" style="white-space: pre;" direction="ltr" dominant-baseline="text-before-edge">mobile</text></g><g stroke-linecap="round" transform="translate(173.7426300048828 221.25912475585938) rotate(0 60.15623474121094 39.55077362060547)"><path d="M19.78 0 C47.45 1.25, 78.53 -0.84, 100.54 0 M19.78 0 C38.78 0.73, 55.55 0.64, 100.54 0 M100.54 0 C112.2 -0.27, 120.37 8.09, 120.31 19.78 M100.54 0 C111.44 0.09, 122.28 7.64, 120.31 19.78 M120.31 19.78 C121.7 35.33, 121.66 49.02, 120.31 59.33 M120.31 19.78 C120.43 29.6, 119.66 39.08, 120.31 59.33 M120.31 59.33 C119.41 74.46, 112.01 80.05, 100.54 79.1 M120.31 59.33 C122.56 71.99, 114.24 78.37, 100.54 79.1 M100.54 79.1 C71.44 78.18, 41.9 80.41, 19.78 79.1 M100.54 79.1 C81.7 79.35, 60.25 78.95, 19.78 79.1 M19.78 79.1 C7.31 77.76, 0.21 71.2, 0 59.33 M19.78 79.1 C6.05 78.64, -2.22 72.63, 0 59.33 M0 59.33 C-1.18 49.92, -1.71 41.49, 0 19.78 M0 59.33 C-0.53 50.46, -0.19 41.3, 0 19.78 M0 19.78 C1.91 5, 8.15 0.03, 19.78 0 M0 19.78 C-1.95 4.97, 5.09 0.97, 19.78 0" stroke="#ffffff" stroke-width="2" fill="none"></path></g><g transform="translate(213.56888580322266 248.30989837646484) rotate(0 20.329978942871094 12.5)"><text x="20.329978942871094" y="0" font-family="Virgil, Segoe UI Emoji" font-size="20px" fill="#ffffff" text-anchor="middle" style="white-space: pre;" direction="ltr" dominant-baseline="text-before-edge">core</text></g><g stroke-linecap="round"><g transform="translate(76.94876098632812 99.97699737548828) rotate(0 67.70832824707031 60.069435119628906)"><path d="M-0.4 0.69 C1.22 6.52, -9.87 22.84, 9.81 33.87 C29.49 44.91, 96.8 52.51, 117.69 66.9 C138.59 81.3, 132.23 111.57, 135.19 120.26 M1.59 0.01 C3.12 6.06, -10.04 24.12, 9.28 34.96 C28.59 45.8, 96.46 50.64, 117.47 65.05 C138.48 79.46, 132.56 112.46, 135.32 121.42" stroke="#ffffff" stroke-width="2" fill="none"></path></g><g transform="translate(76.94876098632812 99.97699737548828) rotate(0 67.70832824707031 60.069435119628906)"><path d="M123.34 95.38 C127.94 104.72, 129.04 113.11, 135.32 121.42 M123.34 95.38 C127.87 104.27, 131.71 115.48, 135.32 121.42" stroke="#ffffff" stroke-width="2" fill="none"></path></g><g transform="translate(76.94876098632812 99.97699737548828) rotate(0 67.70832824707031 60.069435119628906)"><path d="M142.88 93.78 C141.47 103.54, 136.57 112.43, 135.32 121.42 M142.88 93.78 C140.02 103.29, 136.48 115.1, 135.32 121.42" stroke="#ffffff" stroke-width="2" fill="none"></path></g></g><mask></mask><g stroke-linecap="round"><g transform="translate(231.45626161320638 104.24000549316406) rotate(0 2.633568115463504 57.819679260253906)"><path d="M0.63 0.1 C1.53 19.16, 4.04 96.32, 4.87 115.58 M-0.49 -0.89 C0.25 18.88, 2.79 97.45, 3.71 117.09" stroke="#ffffff" stroke-width="2" fill="none"></path></g><g transform="translate(231.45626161320638 104.24000549316406) rotate(0 2.633568115463504 57.819679260253906)"><path d="M-7.63 89.32 C-4.25 95.78, -1.57 104.18, 3.71 117.09 M-7.63 89.32 C-3.87 97.62, -0.84 105.81, 3.71 117.09" stroke="#ffffff" stroke-width="2" fill="none"></path></g><g transform="translate(231.45626161320638 104.24000549316406) rotate(0 2.633568115463504 57.819679260253906)"><path d="M12.88 88.53 C10.95 95.31, 8.32 103.91, 3.71 117.09 M12.88 88.53 C10.45 96.97, 7.3 105.4, 3.71 117.09" stroke="#ffffff" stroke-width="2" fill="none"></path></g></g><mask></mask><g stroke-linecap="round"><g transform="translate(377.4994581410931 105.15277862548828) rotate(0 -61.38644782054655 58.175987243652344)"><path d="M0.23 0.53 C-4.8 9.95, -12.56 46.11, -30.36 55.71 C-48.17 65.32, -91.25 47.86, -106.59 58.16 C-121.93 68.45, -119.74 107.86, -122.41 117.46 M-1.1 -0.24 C-6.21 8.95, -13.23 44.24, -30.92 54.2 C-48.61 64.17, -92.08 49.33, -107.25 59.55 C-122.43 69.76, -119.18 106.1, -121.97 115.49" stroke="#ffffff" stroke-width="2" fill="none"></path></g><g transform="translate(377.4994581410931 105.15277862548828) rotate(0 -61.38644782054655 58.175987243652344)"><path d="M-129.15 86.36 C-126.44 95.87, -123.33 103.25, -121.97 115.49 M-129.15 86.36 C-126.67 94.88, -123.78 103.7, -121.97 115.49" stroke="#ffffff" stroke-width="2" fill="none"></path></g><g transform="translate(377.4994581410931 105.15277862548828) rotate(0 -61.38644782054655 58.175987243652344)"><path d="M-108.75 88.56 C-111.82 97.48, -114.51 104.24, -121.97 115.49 M-108.75 88.56 C-112.63 96.58, -116.09 104.71, -121.97 115.49" stroke="#ffffff" stroke-width="2" fill="none"></path></g></g><mask></mask><g stroke-linecap="round" transform="translate(556.3055267333984 10) rotate(0 99.77754211425781 67.138671875)"><path d="M32 0 C73.1 -0.43, 117.89 -1.37, 167.56 0 M32 0 C74.76 -1.43, 116.32 -1.28, 167.56 0 M167.56 0 C187.24 -0.03, 199.72 10.84, 199.56 32 M167.56 0 C189.85 -2.06, 198.88 12.16, 199.56 32 M199.56 32 C197.32 49.63, 198.31 70.62, 199.56 102.28 M199.56 32 C200.78 47.41, 200.03 63.12, 199.56 102.28 M199.56 102.28 C198.24 123.36, 188.05 136.12, 167.56 134.28 M199.56 102.28 C199.57 123.31, 186.92 136.51, 167.56 134.28 M167.56 134.28 C139.95 136.21, 108.76 135.04, 32 134.28 M167.56 134.28 C120.2 135, 72.23 135.89, 32 134.28 M32 134.28 C9.56 136.05, -1.4 123.76, 0 102.28 M32 134.28 C9.81 135.41, 1.05 123.78, 0 102.28 M0 102.28 C-0.75 83.39, -0.01 64.14, 0 32 M0 102.28 C-0.47 83, -0.43 66.06, 0 32 M0 32 C1.97 9.09, 11.73 -1.53, 32 0 M0 32 C1.27 11.8, 10.73 1.48, 32 0" stroke="#ffffff" stroke-width="2" fill="none"></path></g><g transform="translate(631.0630950927734 39.638671875) rotate(0 25.019973754882812 37.5)"><text x="25.019973754882812" y="0" font-family="Virgil, Segoe UI Emoji" font-size="20px" fill="#ffffff" text-anchor="middle" style="white-space: pre;" direction="ltr" dominant-baseline="text-before-edge">front</text><text x="25.019973754882812" y="25" font-family="Virgil, Segoe UI Emoji" font-size="20px" fill="#ffffff" text-anchor="middle" style="white-space: pre;" direction="ltr" dominant-baseline="text-before-edge"></text><text x="25.019973754882812" y="50" font-family="Virgil, Segoe UI Emoji" font-size="20px" fill="#ffffff" text-anchor="middle" style="white-space: pre;" direction="ltr" dominant-baseline="text-before-edge"></text></g><g stroke-linecap="round" transform="translate(607.2074737548828 80.40711975097656) rotate(0 50.47200012207031 21.652549743652344)"><path d="M10.83 0 C32.86 2.34, 50.4 -0.03, 90.12 0 M10.83 0 C36.07 -0.36, 63.71 -0.22, 90.12 0 M90.12 0 C98.94 -0.55, 100.73 2.58, 100.94 10.83 M90.12 0 C98.19 -1.75, 100.48 2.24, 100.94 10.83 M100.94 10.83 C101.56 16.61, 99.39 22.79, 100.94 32.48 M100.94 10.83 C100.52 18.11, 101.98 25.04, 100.94 32.48 M100.94 32.48 C101.24 38.21, 99.23 44.11, 90.12 43.31 M100.94 32.48 C100.89 40.48, 97.15 45.47, 90.12 43.31 M90.12 43.31 C66.67 42.99, 44.36 43.66, 10.83 43.31 M90.12 43.31 C70.96 44, 50.24 44.77, 10.83 43.31 M10.83 43.31 C4.97 43.59, -0.73 38.8, 0 32.48 M10.83 43.31 C3.98 45.39, 0.21 39.71, 0 32.48 M0 32.48 C-1.25 26.08, -0.72 15.5, 0 10.83 M0 32.48 C-0.71 27.92, -0.08 24.29, 0 10.83 M0 10.83 C-0.22 1.94, 2.91 0.9, 10.83 0 M0 10.83 C0.37 2.13, 2.34 -2.13, 10.83 0" stroke="#ffffff" stroke-width="2" fill="none"></path></g><g transform="translate(637.349494934082 89.5596694946289) rotate(0 20.329978942871094 12.5)"><text x="20.329978942871094" y="0" font-family="Virgil, Segoe UI Emoji" font-size="20px" fill="#ffffff" text-anchor="middle" style="white-space: pre;" direction="ltr" dominant-baseline="text-before-edge">core</text></g></svg>