<svg version="1.1" xmlns="http://www.w3.org/2000/svg" viewBox="0 0 570.7499234883923 444.60934342929204" width="570.7499234883923" height="444.60934342929204">
  <!-- svg-source:excalidraw -->
  
  <defs>
    <style class="style-fonts">
      @font-face {
        font-family: "Virgil";
        src: url("https://file%2B.vscode-resource.vscode-cdn.net/Users/user/.vscode/extensions/pomdtr.excalidraw-editor-3.7.4/public//dist/excalidraw-assets/Virgil.woff2");
      }
      @font-face {
        font-family: "Cascadia";
        src: url("https://file%2B.vscode-resource.vscode-cdn.net/Users/user/.vscode/extensions/pomdtr.excalidraw-editor-3.7.4/public//dist/excalidraw-assets/Cascadia.woff2");
      }
      @font-face {
        font-family: "Assistant";
        src: url("https://file%2B.vscode-resource.vscode-cdn.net/Users/user/.vscode/extensions/pomdtr.excalidraw-editor-3.7.4/public//dist/excalidraw-assets/Assistant-Regular.woff2");
      }
    </style>
    
  </defs>
  <rect x="0" y="0" width="570.7499234883923" height="444.60934342929204" fill="#000"></rect><g stroke-linecap="round" transform="translate(114.59792433775362 62.23156767857759) rotate(0 60.15623474121094 39.55077362060547)"><path d="M19.78 0 C51.79 0.68, 79.76 0.27, 100.54 0 M19.78 0 C42.23 -0.6, 63.52 -0.06, 100.54 0 M100.54 0 C113.71 0.07, 118.73 7.14, 120.31 19.78 M100.54 0 C114.45 -1.81, 120.93 7.94, 120.31 19.78 M120.31 19.78 C118.76 31.08, 118.78 45.36, 120.31 59.33 M120.31 19.78 C119.39 34.77, 120.58 51.02, 120.31 59.33 M120.31 59.33 C121.06 74.18, 114.37 78.05, 100.54 79.1 M120.31 59.33 C122.27 71.84, 113.61 80.05, 100.54 79.1 M100.54 79.1 C73.06 77.3, 46.44 78, 19.78 79.1 M100.54 79.1 C68.95 80.44, 37.11 80.36, 19.78 79.1 M19.78 79.1 C6.07 78.72, 1.44 72.45, 0 59.33 M19.78 79.1 C6.25 77.12, -0.79 70.96, 0 59.33 M0 59.33 C0.6 44.41, 0.8 29.09, 0 19.78 M0 59.33 C0.61 49.34, 0.61 38.06, 0 19.78 M0 19.78 C1.44 6.58, 7.82 -1.95, 19.78 0 M0 19.78 C0.65 7.28, 4.83 0.07, 19.78 0" stroke="#ffffff" stroke-width="2" fill="none"></path></g><g transform="translate(149.73418532408175 89.28234129918306) rotate(0 25.019973754882812 12.5)"><text x="25.019973754882812" y="0" font-family="Virgil, Segoe UI Emoji" font-size="20px" fill="#ffffff" text-anchor="middle" style="white-space: pre;" direction="ltr" dominant-baseline="text-before-edge">front</text></g><g stroke-linecap="round" transform="translate(113.19223891294894 161.0295184232065) rotate(0 60.15623474121094 39.55077362060547)"><path d="M19.78 0 C44.62 -0.71, 68.25 -1.28, 100.54 0 M19.78 0 C43.63 -0.23, 66.04 -0.65, 100.54 0 M100.54 0 C115.7 1.77, 121.49 5.01, 120.31 19.78 M100.54 0 C113.65 1.68, 118.94 7.27, 120.31 19.78 M120.31 19.78 C121.04 28.53, 118.22 40.26, 120.31 59.33 M120.31 19.78 C120.76 27.85, 120.86 38.15, 120.31 59.33 M120.31 59.33 C120.02 73.6, 113.53 78.26, 100.54 79.1 M120.31 59.33 C122.01 73.73, 112.89 81.21, 100.54 79.1 M100.54 79.1 C80.33 78.59, 59.09 78.76, 19.78 79.1 M100.54 79.1 C81.75 79.19, 63.12 79.27, 19.78 79.1 M19.78 79.1 C7.99 80.94, 0.46 70.71, 0 59.33 M19.78 79.1 C4.49 79.75, 0.1 71.71, 0 59.33 M0 59.33 C-1.91 46.96, -0.46 36.14, 0 19.78 M0 59.33 C0.36 50.04, 0.73 39.24, 0 19.78 M0 19.78 C-1.47 6.47, 4.8 -1.58, 19.78 0 M0 19.78 C1.19 4.85, 4.85 2.16, 19.78 0" stroke="#ffffff" stroke-width="2" fill="none"></path></g><g transform="translate(151.7084895233005 188.08029204381197) rotate(0 21.639984130859375 12.5)"><text x="21.639984130859375" y="0" font-family="Virgil, Segoe UI Emoji" font-size="20px" fill="#ffffff" text-anchor="middle" style="white-space: pre;" direction="ltr" dominant-baseline="text-before-edge">back</text></g><g stroke-linecap="round" transform="translate(114.61548720396456 257.1030657864877) rotate(0 60.15623474121094 39.55077362060547)"><path d="M19.78 0 C46.92 -0.85, 74.84 0.44, 100.54 0 M19.78 0 C45.15 0.25, 69.35 0.19, 100.54 0 M100.54 0 C114.95 1.47, 121.56 6.46, 120.31 19.78 M100.54 0 C115.56 1.9, 120.52 4.85, 120.31 19.78 M120.31 19.78 C121.57 26.31, 120.12 34.23, 120.31 59.33 M120.31 19.78 C120.09 34.91, 121.17 49.03, 120.31 59.33 M120.31 59.33 C121.58 71.86, 114.66 79.21, 100.54 79.1 M120.31 59.33 C120.96 74.55, 112.02 79.91, 100.54 79.1 M100.54 79.1 C74.98 77.8, 45.45 80.03, 19.78 79.1 M100.54 79.1 C78.62 78.1, 56.63 78.19, 19.78 79.1 M19.78 79.1 C6.26 80.18, 0.87 74.08, 0 59.33 M19.78 79.1 C5.86 79.68, -2.15 72.27, 0 59.33 M0 59.33 C-1.33 43.15, 1.42 29.89, 0 19.78 M0 59.33 C-0.17 44.94, 0.54 29.8, 0 19.78 M0 19.78 C-0.6 5.64, 7.24 1.94, 19.78 0 M0 19.78 C1.14 7.79, 4.31 -1.34, 19.78 0" stroke="#ffffff" stroke-width="2" fill="none"></path></g><g transform="translate(147.5317545989841 284.1538394070932) rotate(0 27.239967346191406 12.5)"><text x="27.239967346191406" y="0" font-family="Virgil, Segoe UI Emoji" font-size="20px" fill="#ffffff" text-anchor="middle" style="white-space: pre;" direction="ltr" dominant-baseline="text-before-edge">mobile</text></g><g stroke-linecap="round" transform="translate(353.6374230225772 61.172280333015436) rotate(0 60.15623474121094 39.55077362060547)"><path d="M19.78 0 C47.45 1.25, 78.53 -0.84, 100.54 0 M19.78 0 C38.78 0.73, 55.55 0.64, 100.54 0 M100.54 0 C112.2 -0.27, 120.37 8.09, 120.31 19.78 M100.54 0 C111.44 0.09, 122.28 7.64, 120.31 19.78 M120.31 19.78 C121.7 35.33, 121.66 49.02, 120.31 59.33 M120.31 19.78 C120.43 29.6, 119.66 39.08, 120.31 59.33 M120.31 59.33 C119.41 74.46, 112.01 80.05, 100.54 79.1 M120.31 59.33 C122.56 71.99, 114.24 78.37, 100.54 79.1 M100.54 79.1 C71.44 78.18, 41.9 80.41, 19.78 79.1 M100.54 79.1 C81.7 79.35, 60.25 78.95, 19.78 79.1 M19.78 79.1 C7.31 77.76, 0.21 71.2, 0 59.33 M19.78 79.1 C6.05 78.64, -2.22 72.63, 0 59.33 M0 59.33 C-1.18 49.92, -1.71 41.49, 0 19.78 M0 59.33 C-0.53 50.46, -0.19 41.3, 0 19.78 M0 19.78 C1.91 5, 8.15 0.03, 19.78 0 M0 19.78 C-1.95 4.97, 5.09 0.97, 19.78 0" stroke="#ffffff" stroke-width="2" fill="none"></path></g><g transform="translate(393.46367882091704 88.2230539536209) rotate(0 20.329978942871094 12.5)"><text x="20.329978942871094" y="0" font-family="Virgil, Segoe UI Emoji" font-size="20px" fill="#ffffff" text-anchor="middle" style="white-space: pre;" direction="ltr" dominant-baseline="text-before-edge">core</text></g><g stroke-linecap="round"><g transform="translate(302.2382281335359 9.71266456842423) rotate(0 2.05506790764656 212.4783936003272)"><path d="M0.44 0.29 C0.99 70.98, 3.85 354.09, 4.48 424.9" stroke="#ffffff" stroke-width="2.5" fill="none" stroke-dasharray="8 10"></path></g></g><mask></mask><g stroke-linecap="round"><g transform="translate(294.2372881304883 362.80554381341017) rotate(0 -142.0817332176371 0.3139282026309047)"><path d="M-0.73 -0.88 C-48.14 -0.92, -236.17 0.16, -283.59 0.53 M1.08 1.27 C-46.5 1.36, -236.9 2.34, -284.24 2.02" stroke="#ffffff" stroke-width="2" fill="none"></path></g><g transform="translate(294.2372881304883 362.80554381341017) rotate(0 -142.0817332176371 0.3139282026309047)"><path d="M-256.05 -8.24 C-267.86 -3.67, -276.95 -2.64, -284.24 2.02 M-256.05 -8.24 C-266.02 -4.82, -275.77 0.08, -284.24 2.02" stroke="#ffffff" stroke-width="2" fill="none"></path></g><g transform="translate(294.2372881304883 362.80554381341017) rotate(0 -142.0817332176371 0.3139282026309047)"><path d="M-256.05 12.28 C-267.99 9.28, -277.08 2.73, -284.24 2.02 M-256.05 12.28 C-266.01 8.34, -275.76 5.87, -284.24 2.02" stroke="#ffffff" stroke-width="2" fill="none"></path></g></g><mask></mask><g transform="translate(69.03615003157245 376.2223942281147) rotate(0 57.62995147705078 12.5)"><text x="0" y="0" font-family="Virgil, Segoe UI Emoji" font-size="20px" fill="#ffffff" text-anchor="start" style="white-space: pre;" direction="ltr" dominant-baseline="text-before-edge">Frames/Libs</text></g><g transform="translate(15.474855826093915 12.260919244875339) rotate(0 37.188682556152344 21.277834192890907)"><text x="0" y="0" font-family="Virgil, Segoe UI Emoji" font-size="34.044534708625456px" fill="#ffffff" text-anchor="start" style="white-space: pre;" direction="ltr" dominant-baseline="text-before-edge">Apps</text></g><g stroke-linecap="round"><g transform="translate(314.45741055365977 47.372238244881714) rotate(0 105.79735035566262 -1.0267961497871312)"><path d="M-0.49 -0.06 C34.73 -0.56, 175.41 -2.23, 210.67 -2.74 M1.45 -1.13 C37.1 -1.52, 178.14 -1.36, 212.89 -1.57" stroke="#ffffff" stroke-width="2" fill="none"></path></g><g transform="translate(314.45741055365977 47.372238244881714) rotate(0 105.79735035566262 -1.0267961497871312)"><path d="M184.72 8.75 C191.56 4.77, 197.47 2.87, 212.89 -1.57 M184.72 8.75 C191.25 6.47, 196.93 3.94, 212.89 -1.57" stroke="#ffffff" stroke-width="2" fill="none"></path></g><g transform="translate(314.45741055365977 47.372238244881714) rotate(0 105.79735035566262 -1.0267961497871312)"><path d="M184.68 -11.77 C191.59 -10.68, 197.5 -7.51, 212.89 -1.57 M184.68 -11.77 C191.28 -9.71, 196.96 -7.9, 212.89 -1.57" stroke="#ffffff" stroke-width="2" fill="none"></path></g></g><mask></mask><g transform="translate(490.33000161339226 77.67078850771009) rotate(0 35.2099609375 25)"><text x="0" y="0" font-family="Virgil, Segoe UI Emoji" font-size="20px" fill="#ffffff" text-anchor="start" style="white-space: pre;" direction="ltr" dominant-baseline="text-before-edge">Regras</text><text x="0" y="25" font-family="Virgil, Segoe UI Emoji" font-size="20px" fill="#ffffff" text-anchor="start" style="white-space: pre;" direction="ltr" dominant-baseline="text-before-edge">Negócio</text></g></svg>